<svg version="1" xmlns="http://www.w3.org/2000/svg" width="682.667" height="682.667" viewBox="0 0 512.000000 512.000000"><path d="M247.6 1.1c-3 .7-140.3 69.2-144.1 71.9-.5.4-21.4 11-46.3 23.5-49.6 25-52.5 26.8-55.6 36.1-1.5 4.6-1.6 15.6-1.4 125l.3 119.9 2.9 5.3c1.6 2.8 4.3 6.3 6 7.5 3.2 2.4 23.4 12.9 95.1 49.2 22.6 11.4 49.1 24.9 59 30 58 29.8 77.6 39.5 82.4 40.9 7 2.1 14.3 2 20.6-.2 2.8-1 33.8-16.4 69-34.4 35.2-17.9 85.6-43.5 112-56.9 26.4-13.3 49.9-25.5 52.2-27.1 5.2-3.5 9.8-10.1 11.3-15.9.7-3.1 1-40.1.8-122.9l-.3-118.5-2.2-4.1c-1.2-2.2-3.6-5.4-5.4-7.2-2-1.9-23.6-13.5-56.8-30.3C417.6 78 365.8 51.7 332 34.5c-33.8-17.2-63.9-32-66.9-32.9-6-1.7-11.5-1.9-17.5-.5zm172.1 106.2c1.7 1.6 1.7 1.9 0 5-1 1.7-8.8 10.6-17.5 19.7-53.8 56.6-108.1 120.3-152.4 179-6.8 9.1-13.9 17.5-15.7 18.7-5 3.4-13.1 4.6-26.8 4.1-14.1-.6-15.6-1.2-20.8-9.1-4.3-6.5-12.2-25-18.1-42.1-5.8-17-6.6-20.4-5.3-24.8 1.8-6.8 14.1-15.1 27-18.4 11.8-3 17.6.5 23 13.9 4.1 10.3 8.1 18.5 10.7 21.7 1.7 2.1 2.3 2.3 4.4 1.3 1.4-.6 9.2-10.1 17.3-21 38.8-52 70.6-90.1 105.5-126.7 17.7-18.5 30.2-23.7 56.2-23.3 8.8.2 11.1.5 12.5 2zM277.5 122c17.1 1.9 31.8 5.6 46.3 11.7 3.4 1.4 6.1 3 6 3.4-.2.4-3 3.9-6.3 7.8-6.8 8.1-5.2 7.9-20.3 2.7-15.9-5.6-26.2-6.9-49.2-6.3-14.5.4-22.1 1.1-29.5 2.7-29.1 6.2-52.4 18.6-70.6 37.7-23.2 24.3-33.1 49.2-31.6 79.2 2.5 51.2 42.3 93.6 99.9 106.5 37.4 8.4 73 3.8 105-13.7 38.2-20.9 59.4-51.5 62.7-90.4 2.2-25.4-4.7-50.4-18.6-68.1-2.9-3.7-5.6-7.3-5.9-8-.5-.9 1.9-4 6.4-8.5l7.1-7.1 2.5 2.3c7.5 7.1 20.7 29.2 25.1 42.2 8.4 24.5 8.7 53.5 1 76.6-16 47.5-59.2 83.1-115.4 95-11.6 2.5-14.5 2.7-36.6 2.7-27.3.1-34.9-.9-54.6-7.4-41.7-13.7-72.8-39.4-90-74.5-8.3-16.9-10.9-27.3-11.6-45.6-.9-23.3 3.2-42.4 13.5-62.3 20-38.8 64.5-69.4 112.2-77.1 5.2-.8 11.1-1.6 13-1.8 7.9-.8 31.1-.6 39.5.3z"/></svg>